<?xml version="1.0" encoding="UTF-8"?>
<svg id="Livello_1" data-name="Livello 1" xmlns="http://www.w3.org/2000/svg" viewBox="0 0 100 100">
  <defs>
    <style>
      .cls-1 {
        fill: #fff;
      }

      .cls-2, .cls-3, .cls-4 {
        fill: #45a442;
      }

      .cls-5 {
        fill: #eeffec;
        stroke: #45a442;
        stroke-miterlimit: 10;
        stroke-width: 1.93px;
      }

      .cls-3 {
        opacity: .6;
      }

      .cls-4 {
        opacity: .4;
      }
    </style>
  </defs>
  <circle class="cls-5" cx="46.41" cy="46.78" r="33.89"/>
  <rect class="cls-2" x="15.55" y="62.11" width="72.41" height="20.8" rx="10.12" ry="10.12" transform="translate(-13.62 11.99) rotate(-11.69)"/>
  <g>
    <path class="cls-1" d="M43.23,74.77l-5.97,1.19,.63,3.17,6.59-1.32,.12,2.27-8.89,1.78-2.49-12.47,8.85-1.77,.44,2.21-6.23,1.24,.53,2.66,5.97-1.19,.44,2.23Z"/>
    <path class="cls-1" d="M56.86,73.63c-.02,2.43-1.44,4.49-4.57,5.11-3.97,.79-6.39-1.64-7.1-5.19-.68-3.42,.64-6.87,4.66-7.67,3.33-.67,5.33,.95,6.06,2.99l-2.7,.54c-.47-.92-1.33-1.75-3.03-1.41-2.23,.45-2.68,2.62-2.22,4.91,.42,2.1,1.61,4.18,4.02,3.7,1.77-.35,2.08-1.64,2.17-2.43l2.72-.54Z"/>
    <path class="cls-1" d="M70.17,68.44c.7,3.48-.79,6.88-4.85,7.69-3.93,.78-6.54-1.65-7.26-5.23-.72-3.62,.98-6.86,4.86-7.64,3.66-.73,6.49,1.36,7.25,5.18Zm-9.33,1.85c.49,2.44,1.93,4.08,4.14,3.64,2.41-.48,2.86-2.66,2.41-4.89-.47-2.37-1.82-4.02-4.14-3.56-2.26,.45-2.89,2.39-2.41,4.81Z"/>
  </g>
  <g>
    <g>
      <path class="cls-3" d="M50.1,58.43L31.71,27.04s26.72,5.56,18.39,31.39Z"/>
      <path class="cls-4" d="M50.1,58.43L31.71,27.04c-.75,1.9-1.71,5.03-1.65,8.94,.02,1.43,.33,10.38,7.68,16.9,4.78,4.23,10.07,5.25,12.35,5.55Z"/>
    </g>
    <g>
      <path class="cls-3" d="M50.1,58.43l2.23-36.31s-21.33,17.03-2.23,36.31Z"/>
      <path class="cls-4" d="M50.1,58.43l2.23-36.31c1.53,1.36,3.8,3.71,5.51,7.23,.62,1.28,4.4,9.41,.78,18.55-2.35,5.93-6.61,9.23-8.51,10.53Z"/>
    </g>
  </g>
</svg>